<svg version="1.1" id="Layer_1" xmlns="http://www.w3.org/2000/svg" xmlns:xlink="http://www.w3.org/1999/xlink" x="0px" y="0px"
	 width="100%" viewBox="0 0 769 285" enable-background="new 0 0 769 285" xml:space="preserve">
<path fill="#2864C1" opacity="1.000000" stroke="none" 
	d="
M770.000000,159.000031 
	C770.000000,201.324646 770.000000,243.649292 770.000000,285.980469 
	C513.727966,285.986969 257.455963,285.986969 1.091965,285.986969 
	C1.091965,191.080887 1.091965,96.161659 1.091965,1.121217 
	C257.333282,1.121217 513.666626,1.121217 770.000000,1.121217 
	C770.000000,51.423061 770.000000,101.746521 769.813293,152.323700 
	C765.018616,149.504959 765.222595,155.861450 762.031738,155.775635 
	C764.288391,157.753723 766.091919,159.334595 768.109009,161.102676 
	C768.740906,160.400055 769.370483,159.700043 770.000000,159.000031 
M452.027069,247.869888 
	C452.966248,248.987213 453.905426,250.104523 454.844604,251.221848 
	C455.598969,249.888840 456.353333,248.555832 458.029053,247.153687 
	C514.024536,247.514145 570.020142,247.860718 626.015381,248.253830 
	C632.513245,248.299454 639.008728,248.723984 645.506226,248.750000 
	C650.919739,248.771667 652.884094,246.409912 651.555359,241.118759 
	C650.715637,237.775040 649.637085,234.168808 647.587402,231.512268 
	C641.575256,223.720306 640.988037,215.039429 642.148010,205.875793 
	C642.587158,202.406769 643.227112,198.961151 643.598083,195.485916 
	C644.445190,187.550064 646.197693,179.530502 645.640930,171.682693 
	C645.202576,165.503998 642.224426,159.374588 639.692932,153.517899 
	C637.761719,149.049942 632.596741,149.344254 628.817383,147.525406 
	C625.083984,145.728653 622.507263,148.154465 619.339783,148.066025 
	C586.356995,147.144974 553.364075,146.520935 520.370483,146.073639 
	C472.878082,145.429764 425.382874,144.988800 377.888641,144.483353 
	C316.729370,143.832504 255.570114,143.179459 194.409653,142.670746 
	C192.385834,142.653915 189.438675,143.608246 188.468491,145.109421 
	C182.861237,153.785614 180.992142,162.912613 185.210571,173.068573 
	C187.100540,177.618713 187.799225,182.920120 187.865189,187.896164 
	C187.925827,192.471039 186.639175,197.121811 185.545654,201.642258 
	C183.046295,211.974182 185.452652,220.049469 194.613922,226.352066 
	C198.834564,229.255737 202.469650,233.555649 205.174255,237.957336 
	C207.645523,241.979279 210.294098,244.153259 214.959839,244.259537 
	C234.617798,244.707291 254.270676,245.498383 273.930450,245.722290 
	C325.256683,246.306808 376.585571,246.659363 427.633820,247.750885 
	C423.014709,249.217133 418.395630,250.683395 413.575195,252.213562 
	C413.575195,253.667175 413.575195,255.701889 413.575195,257.782440 
	C424.188751,258.637115 433.812714,258.198608 439.702850,247.027161 
	C443.774139,247.078400 447.845459,247.129639 452.027069,247.869888 
M528.503662,73.152161 
	C529.058838,65.259819 529.614014,57.367481 530.185547,49.242416 
	C526.393738,49.242416 523.668884,49.242416 520.796265,49.242416 
	C520.796265,73.628815 520.796265,97.656746 520.796265,121.672424 
	C523.912537,121.672424 526.654846,121.672424 529.795227,121.672424 
	C529.105774,118.835365 528.519775,116.424217 527.933777,114.013069 
	C528.465454,113.628494 528.997070,113.243912 529.528687,112.859337 
	C530.041748,113.899269 530.344116,115.134460 531.099609,115.949738 
	C541.842651,127.542274 561.002808,125.299507 568.385193,111.329849 
	C573.712341,101.249428 573.615601,90.697495 568.240234,80.674850 
	C560.604858,66.438309 541.542114,64.477425 530.722229,76.472488 
	C530.069946,77.195602 529.104736,77.636406 527.315430,78.885452 
	C527.789673,76.455963 528.031189,75.218872 528.503662,73.152161 
M369.978699,108.380287 
	C372.682037,101.480980 372.897400,94.387123 371.134216,87.300308 
	C368.826721,78.025642 363.275146,71.299278 353.716370,69.372177 
	C344.522614,67.518669 336.140320,69.454132 330.427094,77.926193 
	C330.072510,78.452026 329.234985,78.652206 328.206818,79.242256 
	C328.957397,75.961700 329.582581,73.229179 330.271606,70.217621 
	C326.858521,70.217621 324.260010,70.217621 321.371033,70.217621 
	C321.371033,94.468201 321.371033,118.485054 321.371033,142.619049 
	C324.365448,142.619049 327.065857,142.619049 330.589966,142.619049 
	C330.033325,132.783432 329.500732,123.372284 329.005676,114.624489 
	C333.122284,117.127464 337.380768,121.247581 342.289490,122.281960 
	C347.468475,123.373299 353.911469,122.848915 358.611176,120.571960 
	C363.108856,118.392906 366.076508,113.055710 369.978699,108.380287 
M387.145203,74.597733 
	C378.161530,83.620430 375.727783,98.691963 381.399780,110.177124 
	C386.307404,120.114464 396.642975,124.780846 409.766937,122.984558 
	C419.660614,121.630386 427.531891,113.608414 428.089386,103.879807 
	C424.740112,104.592415 420.732819,101.208817 418.408417,106.604553 
	C415.115112,114.249535 408.579407,116.863396 399.921417,115.205597 
	C393.919159,114.056320 386.970001,105.830269 388.285583,98.807556 
	C401.723175,98.807556 415.283325,98.807556 429.070343,98.807556 
	C429.331879,87.412895 426.622040,77.691193 416.779358,72.110191 
	C407.026093,66.579865 396.981018,67.568207 387.145203,74.597733 
M177.794586,115.669868 
	C186.047592,123.450523 198.321091,125.744545 208.278885,121.213341 
	C215.560120,117.900070 219.956406,112.375748 221.213821,104.241653 
	C215.844742,103.132401 212.110153,102.929237 209.768097,108.972443 
	C207.378418,115.138519 198.407196,117.300369 190.971725,114.749397 
	C184.758728,112.617836 180.400650,105.839981 181.113922,98.880707 
	C194.474594,98.880707 207.890060,98.880707 221.216949,98.880707 
	C223.469910,85.317337 215.187378,71.613602 202.890137,69.415260 
	C188.841187,66.903786 176.835815,71.836060 172.573044,86.254387 
	C169.563766,96.432899 170.500351,106.369736 177.794586,115.669868 
M503.279327,121.439110 
	C505.974518,121.637367 508.669708,121.835632 511.201813,122.021896 
	C510.866333,117.301224 510.403961,113.332634 510.339752,109.357628 
	C510.210754,101.370956 510.369965,93.379959 510.277252,85.392288 
	C510.186615,77.581276 506.561096,71.682648 499.041626,70.374184 
	C492.365570,69.212486 485.202148,69.510681 478.452545,70.508438 
	C472.315521,71.415649 466.426239,78.952148 468.314514,86.629890 
	C471.003510,86.629890 473.743103,86.629890 476.401978,86.629890 
	C478.872040,77.977921 483.662628,74.995392 492.041687,76.663879 
	C499.399261,78.128967 501.786743,81.659813 500.638763,89.986168 
	C497.594208,89.986168 494.438171,89.724915 491.343567,90.049561 
	C487.079254,90.496933 482.708710,90.904770 478.655670,92.188393 
	C470.417450,94.797501 466.435974,100.636070 466.711670,108.535332 
	C466.928436,114.745842 472.132477,121.382591 478.005615,122.938507 
	C486.327484,125.143143 494.628052,122.271141 498.782745,115.797150 
	C499.456970,114.746567 500.314392,113.813545 501.532959,112.256569 
	C502.095642,115.827263 502.478943,118.259689 503.279327,121.439110 
M683.177490,72.102058 
	C679.894775,71.219772 676.612000,70.337479 672.036926,69.107857 
	C673.310547,72.695885 673.883118,74.409271 674.523438,76.096939 
	C680.136902,90.891243 685.823853,105.658058 691.360657,120.480988 
	C694.454468,128.763718 691.196045,134.264801 682.591736,135.595108 
	C680.331421,135.944580 678.034790,136.059662 675.675049,136.290161 
	C675.675049,138.605499 675.675049,140.654892 675.675049,143.007507 
	C678.874451,143.007507 681.692749,143.087418 684.505188,142.992950 
	C694.049561,142.672363 699.825745,137.384064 701.625366,127.979942 
	C702.585083,122.964554 703.863647,117.952538 705.593079,113.153313 
	C710.109863,100.618668 714.962830,88.205330 719.657532,75.734474 
	C720.279480,74.082367 720.760132,72.377068 721.332703,70.614914 
	C712.007812,69.296333 711.944092,69.275124 709.215393,77.472702 
	C705.357727,89.061928 701.605469,100.686272 697.530212,113.145485 
	C692.727661,99.340073 688.116943,86.086098 683.177490,72.102058 
M282.849701,68.998436 
	C274.280762,69.922104 267.628418,73.911652 264.045044,81.856049 
	C259.795807,91.276680 259.755707,101.021622 264.205841,110.352615 
	C269.049683,120.509117 277.942780,123.547516 288.613678,123.051094 
	C298.099854,122.609802 305.138245,118.515808 309.233368,109.859901 
	C319.258209,88.670197 306.948151,68.959885 282.849701,68.998436 
M106.866455,236.885040 
	C112.288757,237.084702 117.924477,238.331741 123.091545,237.278870 
	C136.242432,234.599182 143.140091,222.305618 141.364822,206.713943 
	C139.358795,189.095657 126.289467,180.961975 108.737854,184.722244 
	C98.028084,187.016724 91.828613,195.312973 90.790344,207.131973 
	C89.508736,221.720963 94.516327,231.375305 106.866455,236.885040 
M108.862953,68.972908 
	C103.253990,72.355774 97.645027,75.738640 92.517929,78.830887 
	C93.076118,76.469772 93.779022,73.496529 94.555122,70.213654 
	C91.139473,70.213654 88.547920,70.213654 85.755051,70.213654 
	C85.755051,87.533470 85.755051,104.603416 85.755051,121.670685 
	C88.842873,121.670685 91.579224,121.670685 94.743668,121.670685 
	C94.743668,110.677963 94.714684,100.043182 94.774452,89.408897 
	C94.783585,87.785347 94.814888,85.973282 95.501694,84.575523 
	C98.180855,79.122955 106.447624,75.668755 112.710938,77.130905 
	C118.230316,78.419388 121.126129,82.669350 121.343842,90.118942 
	C121.480057,94.779869 121.401596,99.447266 121.407326,104.111771 
	C121.414444,109.910843 121.409035,115.709930 121.409035,121.767303 
	C124.694031,121.767303 127.430389,121.767303 130.742783,121.767303 
	C130.742783,111.054077 130.747116,100.598694 130.741730,90.143318 
	C130.734299,75.718788 124.058929,68.989990 108.862953,68.972908 
M67.264244,207.503387 
	C67.264244,217.272751 67.264244,227.042130 67.264244,236.994049 
	C70.650391,236.994049 73.381989,236.994049 76.705750,236.994049 
	C76.705750,221.929443 76.705750,207.199646 76.705750,191.904083 
	C81.027687,191.904083 84.768768,191.904083 88.417908,191.904083 
	C88.417908,189.259979 88.417908,187.227371 88.417908,184.968796 
	C86.155899,184.968796 84.330002,184.968781 82.504105,184.968781 
	C80.706635,184.968781 78.909172,184.968796 77.176025,184.968796 
	C76.024773,175.282990 77.325050,173.673935 88.460014,170.676193 
	C88.460014,168.673126 88.460014,166.598709 88.460014,163.009201 
	C83.363724,164.383087 78.507027,164.881622 74.464539,166.962173 
	C67.475021,170.559464 67.913292,178.222107 66.744781,185.051270 
	C63.960564,185.051270 61.509319,185.051270 58.747181,185.051270 
	C58.747181,187.463318 58.747181,189.526749 58.747181,191.776245 
	C61.623837,191.963837 64.209793,192.132462 67.264259,192.331650 
	C67.264259,197.247864 67.264259,201.876404 67.264244,207.503387 
M162.134399,69.988312 
	C159.194382,69.988312 156.254349,69.988312 152.846527,69.988312 
	C152.846527,64.981659 152.846527,60.572987 152.846527,55.883873 
	C149.657776,55.725410 146.953949,55.591045 143.758423,55.432247 
	C143.758423,60.579277 143.758423,65.020058 143.758423,69.679886 
	C140.745712,69.893265 138.175659,70.075294 135.545609,70.261566 
	C135.545609,72.634102 135.545609,74.674965 135.545609,76.817238 
	C138.363678,76.965950 140.810303,77.095055 143.854904,77.255722 
	C143.854904,79.930862 143.820450,82.378036 143.861115,84.823952 
	C144.004700,93.460686 143.774185,102.129089 144.464172,110.722969 
	C144.986160,117.224442 148.495575,120.848671 154.296524,121.659019 
	C158.302643,122.218643 162.450089,121.766502 166.565216,121.766502 
	C166.565216,119.337502 166.565216,117.405594 166.565216,115.306343 
	C164.369965,115.065193 162.414551,114.876404 160.466324,114.630768 
	C156.798721,114.168343 153.765762,112.415413 153.662262,108.546127 
	C153.384521,98.160973 153.567474,87.763504 153.567474,76.983963 
	C157.367462,76.983963 161.135971,76.983963 165.377945,76.983963 
	C164.700882,74.275024 167.725235,71.039352 162.134399,69.988312 
M656.126831,69.182022 
	C656.126831,64.882957 656.126831,60.583885 656.126831,55.913971 
	C652.846680,55.740093 650.128052,55.595982 646.753479,55.417099 
	C646.753479,60.551270 646.753479,65.112740 646.753479,69.753716 
	C643.553955,69.938301 640.979492,70.086830 638.467102,70.231781 
	C638.467102,72.708717 638.467102,74.630615 638.467102,76.753006 
	C641.308228,76.954788 643.879028,77.137383 646.854919,77.348740 
	C646.854919,81.157791 646.816101,84.622192 646.862976,88.085442 
	C646.961975,95.398003 646.742126,102.739555 647.334290,110.013771 
	C647.917786,117.181992 651.696594,121.118614 658.053467,121.822243 
	C661.783569,122.235115 665.596680,121.897560 669.479858,121.897560 
	C669.479858,119.369087 669.479858,117.318352 669.479858,115.246147 
	C667.319031,115.031883 665.500244,114.894287 663.693420,114.663155 
	C660.327026,114.232513 656.980591,112.923248 656.862671,109.254738 
	C656.519226,98.576385 656.740784,87.879852 656.740784,76.799965 
	C660.551147,76.799965 664.311218,76.799965 668.148193,76.799965 
	C668.148193,74.350952 668.148193,72.298676 668.148193,69.822144 
	C664.113770,69.822144 660.466125,69.822144 656.126831,69.182022 
M63.840603,82.499939 
	C63.840603,95.573578 63.840603,108.647217 63.840603,121.635521 
	C67.558304,121.635521 70.447174,121.635521 73.802444,121.635521 
	C73.802444,97.307381 73.802444,73.368172 73.802444,49.327484 
	C70.146385,49.327484 67.242043,49.327484 63.840591,49.327484 
	C63.840591,60.263264 63.840591,70.881599 63.840603,82.499939 
M601.161865,52.808887 
	C601.161865,75.717339 601.161865,98.625786 601.161865,121.704948 
	C604.465698,121.704948 607.183350,121.704948 609.921509,121.704948 
	C609.921509,97.368118 609.921509,73.343933 609.921509,48.649567 
	C606.859070,50.530815 602.392517,45.884212 601.161865,52.808887 
M447.862549,105.503937 
	C447.826294,102.513618 447.760162,99.523308 447.758942,96.532974 
	C447.753723,83.639366 451.803497,79.032372 464.629608,77.269997 
	C465.268616,77.182198 465.884613,76.926941 466.552521,76.738007 
	C466.552521,74.222549 466.552521,71.803612 466.552521,69.263069 
	C456.524750,67.923409 450.960693,74.460670 445.126312,80.401627 
	C445.910400,77.131569 446.694458,73.861511 447.541931,70.327110 
	C444.092194,70.327110 441.391602,70.327110 438.645813,70.327110 
	C438.645813,87.718765 438.645813,104.749107 438.645813,121.883118 
	C441.897644,121.883118 444.749298,121.883118 447.862518,121.883118 
	C447.862518,116.452278 447.862518,111.476112 447.862549,105.503937 
M167.248154,186.583160 
	C163.959106,189.624207 160.670044,192.665253 157.037582,196.023804 
	C157.906281,192.250885 158.686188,188.863602 159.532410,185.188232 
	C156.088577,185.188232 153.484985,185.188232 150.735168,185.188232 
	C150.735168,202.587738 150.735168,219.763779 150.735168,236.987793 
	C153.971817,236.987793 156.732010,236.987793 159.850906,236.987793 
	C159.850906,229.172699 159.947113,221.703690 159.831055,214.237961 
	C159.583206,198.293579 162.445847,194.707642 177.909836,191.952576 
	C178.068069,191.924393 178.212097,191.816544 178.601654,191.633835 
	C178.601654,189.333817 178.601654,186.922073 178.601654,183.268951 
	C174.674362,184.346252 171.290665,185.274429 167.248154,186.583160 
M231.081879,109.478561 
	C231.081879,113.585014 231.081879,117.691467 231.081879,121.984055 
	C234.333160,121.984055 237.060989,121.984055 240.299088,121.984055 
	C240.299088,119.868332 240.301544,118.076508 240.298660,116.284691 
	C240.286880,108.974762 240.027359,101.655045 240.317505,94.357155 
	C240.768158,83.021828 245.162582,78.528908 256.276276,77.301895 
	C257.215454,77.198212 258.135681,76.923004 258.921692,76.757591 
	C258.921692,74.062675 258.921692,71.661079 258.921692,69.151543 
	C248.905350,68.108521 243.320328,74.646408 237.475540,80.486343 
	C238.335526,77.220245 239.195526,73.954155 240.147308,70.339470 
	C236.683441,70.339470 233.974518,70.339470 231.081879,70.339470 
	C231.081879,83.288841 231.081879,95.886757 231.081879,109.478561 
M590.143250,82.509949 
	C590.143250,78.404991 590.143250,74.300026 590.143250,69.964294 
	C586.861145,69.964294 584.277893,69.964294 581.490479,69.964294 
	C581.490479,87.418083 581.490479,104.596336 581.490479,121.687729 
	C584.498840,121.687729 587.088318,121.687729 590.143250,121.687729 
	C590.143250,108.748245 590.143250,96.128029 590.143250,82.509949 
M631.143250,85.503319 
	C631.143250,80.399704 631.143250,75.296089 631.143250,69.965866 
	C627.859070,69.965866 625.275757,69.965866 622.492188,69.965866 
	C622.492188,87.420532 622.492188,104.598015 622.492188,121.686447 
	C625.502136,121.686447 628.091248,121.686447 631.143250,121.686447 
	C631.143250,109.744865 631.143250,98.123352 631.143250,85.503319 
M668.346619,258.033691 
	C668.567749,264.713196 664.394287,267.136139 657.910828,268.090149 
	C665.504761,268.081635 668.894836,271.575623 668.926697,279.141693 
	C669.954224,271.866455 672.995361,267.567688 681.079956,267.990448 
	C673.655518,267.829376 670.431824,264.141174 669.570374,257.881012 
	C669.553406,257.757874 669.010742,257.707062 668.346619,258.033691 
M474.977600,33.460949 
	C474.545410,31.034678 474.113190,28.608408 473.680969,26.182138 
	C473.305542,34.204063 469.948578,39.037369 460.467316,38.520893 
	C469.517761,38.317039 473.437164,42.579662 473.557434,51.390804 
	C472.553711,41.647270 478.212463,39.137348 485.133911,38.962372 
	C481.894440,37.434475 478.515564,35.840816 474.977600,33.460949 
M631.141052,54.508110 
	C631.051270,52.762119 630.961548,51.016129 630.880554,49.440792 
	C627.552979,49.440792 624.838257,49.440792 622.208252,49.440792 
	C622.208252,53.115547 622.208252,56.360569 622.208252,59.670952 
	C625.284058,59.670952 628.003296,59.670952 630.896973,59.670952 
	C630.990723,58.042736 631.065613,56.742603 631.141052,54.508110 
M589.868835,49.877048 
	C587.058777,49.524895 584.248657,49.172745 581.272339,48.799755 
	C581.272339,53.010197 581.272339,56.364414 581.272339,59.610840 
	C584.420593,59.610840 587.137573,59.610840 590.069641,59.610840 
	C590.069641,56.402485 590.069641,53.593475 589.868835,49.877048 
M748.945435,160.473587 
	C749.034668,159.195419 749.123901,157.917267 749.213196,156.639114 
	C748.087646,156.943649 746.962036,157.248184 745.836487,157.552704 
	C746.661499,158.580261 747.486572,159.607803 748.945435,160.473587 
M220.511108,59.030605 
	C221.282166,60.130165 222.053238,61.229725 222.824295,62.329277 
	C223.409317,61.335735 223.994339,60.342194 224.579361,59.348656 
	C223.331177,59.052837 222.082993,58.757015 220.511108,59.030605 
M18.861982,227.299286 
	C19.711096,226.168716 20.560207,225.038147 21.409317,223.907578 
	C20.611828,223.501221 19.814337,223.094864 19.016850,222.688492 
	C18.774441,224.122971 18.532032,225.557434 18.861982,227.299286 
z"/>
<path fill="#4679CA" opacity="1.000000" stroke="none" 
	d="
M770.000000,158.571564 
	C769.370483,159.700043 768.740906,160.400055 768.109009,161.102676 
	C766.091919,159.334595 764.288391,157.753723 762.031738,155.775635 
	C765.222595,155.861450 765.018616,149.504959 769.813293,152.788712 
	C770.000000,154.714355 770.000000,156.428711 770.000000,158.571564 
z"/>
<path fill="#D532B9" opacity="1.000000" stroke="none" 
	d="
M427.913422,247.104431 
	C376.585571,246.659363 325.256683,246.306808 273.930450,245.722290 
	C254.270676,245.498383 234.617798,244.707291 214.959839,244.259537 
	C210.294098,244.153259 207.645523,241.979279 205.174255,237.957336 
	C202.469650,233.555649 198.834564,229.255737 194.613922,226.352066 
	C185.452652,220.049469 183.046295,211.974182 185.545654,201.642258 
	C186.639175,197.121811 187.925827,192.471039 187.865189,187.896164 
	C187.799225,182.920120 187.100540,177.618713 185.210571,173.068573 
	C180.992142,162.912613 182.861237,153.785614 188.468491,145.109421 
	C189.438675,143.608246 192.385834,142.653915 194.409653,142.670746 
	C255.570114,143.179459 316.729370,143.832504 377.888641,144.483353 
	C425.382874,144.988800 472.878082,145.429764 520.370483,146.073639 
	C553.364075,146.520935 586.356995,147.144974 619.339783,148.066025 
	C622.507263,148.154465 625.083984,145.728653 628.817383,147.525406 
	C632.596741,149.344254 637.761719,149.049942 639.692932,153.517899 
	C642.224426,159.374588 645.202576,165.503998 645.640930,171.682693 
	C646.197693,179.530502 644.445190,187.550064 643.598083,195.485916 
	C643.227112,198.961151 642.587158,202.406769 642.148010,205.875793 
	C640.988037,215.039429 641.575256,223.720306 647.587402,231.512268 
	C649.637085,234.168808 650.715637,237.775040 651.555359,241.118759 
	C652.884094,246.409912 650.919739,248.771667 645.506226,248.750000 
	C639.008728,248.723984 632.513245,248.299454 626.015381,248.253830 
	C570.020142,247.860718 514.024536,247.514145 457.140015,247.111206 
	C454.806213,247.106110 453.361481,247.143509 451.916748,247.180908 
	C447.845459,247.129639 443.774139,247.078400 439.243317,246.580460 
	C440.814819,238.797485 442.481964,231.335587 444.960999,224.153961 
	C448.817139,212.982834 453.234467,202.005692 457.389618,190.937210 
	C458.015625,189.269745 458.510193,187.552948 459.081787,185.809479 
	C450.332184,184.021683 449.750519,184.204590 447.388611,191.554489 
	C443.776031,202.796494 440.397552,214.113586 436.856750,225.379028 
	C436.614288,226.150375 435.847931,226.757065 435.182037,227.627487 
	C434.580322,226.897934 434.151306,226.590149 434.017853,226.185013 
	C430.270264,214.808823 426.634735,203.395020 422.801575,192.047913 
	C420.143372,184.178864 419.231415,183.801758 410.607422,185.906189 
	C411.127045,187.475967 411.581421,189.039749 412.156982,190.557571 
	C417.825256,205.505005 423.506470,220.447540 429.200836,235.385071 
	C430.779144,239.525360 430.908752,243.479675 427.913422,247.104431 
M256.417328,172.004578 
	C259.030762,172.004578 261.644196,172.004578 264.390930,172.004578 
	C264.390930,169.024002 264.390930,166.669266 264.390930,164.461975 
	C247.091461,164.461975 230.224716,164.461975 213.424652,164.461975 
	C213.424652,188.837006 213.424652,212.745468 213.424652,236.872650 
	C230.612701,236.872650 247.466660,236.872650 264.450378,236.872650 
	C264.450378,234.055557 264.450378,231.663727 264.450378,228.627655 
	C250.526138,228.627655 236.957428,228.627655 223.313202,228.627655 
	C223.313202,219.766037 223.313202,211.558578 223.313202,202.741577 
	C236.253265,202.741577 248.796112,202.741577 261.294373,202.741577 
	C261.294373,199.875320 261.294373,197.631912 261.294373,194.800232 
	C248.355057,194.800232 235.795242,194.800232 223.247345,194.800232 
	C223.247345,186.959595 223.247345,179.718002 223.247345,172.004578 
	C234.199539,172.004578 244.818100,172.004578 256.417328,172.004578 
M337.571594,213.988007 
	C348.314667,213.988007 359.057709,213.988007 369.679413,213.988007 
	C371.330750,198.552444 361.876953,185.161972 349.262909,184.031418 
	C331.815094,182.467636 320.429291,192.077225 319.484619,209.164154 
	C318.524689,226.527023 328.583344,238.059860 344.894440,238.298019 
	C358.471924,238.496292 369.042267,230.093155 368.910706,219.205841 
	C361.654388,217.988647 361.099976,218.145767 359.339508,221.918427 
	C355.967621,229.144318 349.464752,232.073120 341.083344,230.140793 
	C333.836090,228.469940 329.045105,222.160980 329.219086,213.988007 
	C331.661133,213.988007 334.130829,213.988007 337.571594,213.988007 
M596.765137,238.173355 
	C612.355347,238.800430 623.238770,231.140762 623.483032,219.138199 
	C619.060486,218.487259 615.192200,217.484818 612.859558,223.560440 
	C610.405029,229.953262 602.001099,232.265198 594.257629,229.884872 
	C587.798096,227.899231 583.191467,220.993988 583.956665,213.858292 
	C597.298706,213.858292 610.702026,213.858292 623.997131,213.858292 
	C625.797791,204.321167 621.472656,193.029999 613.786804,187.974030 
	C604.935303,182.151215 595.475098,182.282211 586.333374,187.145737 
	C576.070679,192.605667 571.596497,206.026764 574.944519,219.583725 
	C577.571228,230.220078 584.854919,236.656631 596.765137,238.173355 
M509.936127,201.717621 
	C505.657074,188.243652 496.329224,182.536545 481.042999,184.039856 
	C469.759186,185.149521 461.431091,194.037796 460.378143,206.721085 
	C460.025818,210.964645 460.328308,215.403992 461.184265,219.579025 
	C463.447571,230.618576 472.170563,237.767563 482.962921,238.012848 
	C497.661560,238.346893 506.848633,232.867233 509.578827,220.765030 
	C510.892975,214.939804 510.025635,208.622437 509.936127,201.717621 
M547.322021,183.990463 
	C538.000793,182.419937 533.074585,189.423630 526.998779,194.362122 
	C527.622009,191.422104 528.245300,188.482071 528.901733,185.385605 
	C525.571289,185.385605 523.021179,185.385605 520.401123,185.385605 
	C520.401123,202.686966 520.401123,219.589706 520.401123,236.562347 
	C523.424561,236.562347 526.110657,236.562347 529.142029,236.562347 
	C529.142029,225.806885 529.130066,215.496857 529.146118,205.186844 
	C529.157166,198.077698 534.973022,192.261368 542.380920,191.907166 
	C550.704163,191.509232 555.277588,195.331970 555.841431,203.729019 
	C556.231079,209.532593 556.043396,215.376175 556.076416,221.202087 
	C556.105347,226.309860 556.082397,231.417923 556.082397,236.731262 
	C559.317627,236.731262 561.891907,236.731262 565.138855,236.731262 
	C565.138855,225.361588 565.195129,214.258560 565.122986,203.156357 
	C565.050842,192.052658 559.373901,185.697281 547.322021,183.990463 
M301.825562,204.181122 
	C298.979797,212.123764 296.134033,220.066406 293.118347,228.483307 
	C292.316986,227.459915 291.898773,227.132324 291.753906,226.710800 
	C287.809143,215.231323 283.974060,203.713455 279.943115,192.264511 
	C277.075226,184.118988 276.960297,184.159454 267.691132,185.511047 
	C268.241882,187.124847 268.699707,188.677002 269.294037,190.174988 
	C274.941528,204.409515 280.740967,218.585876 286.184448,232.897736 
	C287.523376,236.418015 289.530762,237.123993 292.903625,237.118607 
	C296.351410,237.113098 298.650787,236.728561 300.088196,232.878082 
	C305.152008,219.313187 310.647064,205.909363 315.971191,192.441528 
	C316.867920,190.173203 317.728485,187.890594 318.649139,185.502029 
	C309.260132,184.197571 309.257599,184.196625 306.261505,192.212006 
	C304.862640,195.954330 303.475769,199.701141 301.825562,204.181122 
M391.352417,199.182037 
	C394.969879,193.008591 401.281250,192.582153 407.523743,192.065231 
	C407.523743,189.255661 407.523743,186.845078 407.523743,184.124420 
	C397.732910,183.371414 391.780273,188.937943 386.164795,195.448425 
	C386.935242,192.181427 387.705658,188.914429 388.537781,185.385895 
	C385.075836,185.385895 382.387390,185.385895 379.787598,185.385895 
	C379.787598,202.851074 379.787598,219.896301 379.787598,236.912827 
	C383.052124,236.912827 385.784973,236.912827 388.803375,236.912827 
	C388.803375,228.669540 388.555206,220.840408 388.899994,213.037476 
	C389.094849,208.627060 390.264496,204.259705 391.352417,199.182037 
z"/>
<path fill="#D9E6FC" opacity="1.000000" stroke="none" 
	d="
M528.388184,73.566971 
	C528.031189,75.218872 527.789673,76.455963 527.315430,78.885452 
	C529.104736,77.636406 530.069946,77.195602 530.722229,76.472488 
	C541.542114,64.477425 560.604858,66.438309 568.240234,80.674850 
	C573.615601,90.697495 573.712341,101.249428 568.385193,111.329849 
	C561.002808,125.299507 541.842651,127.542274 531.099609,115.949738 
	C530.344116,115.134460 530.041748,113.899269 529.528687,112.859337 
	C528.997070,113.243912 528.465454,113.628494 527.933777,114.013069 
	C528.519775,116.424217 529.105774,118.835365 529.795227,121.672424 
	C526.654846,121.672424 523.912537,121.672424 520.796265,121.672424 
	C520.796265,97.656746 520.796265,73.628815 520.796265,49.242416 
	C523.668884,49.242416 526.393738,49.242416 530.185547,49.242416 
	C529.614014,57.367481 529.058838,65.259819 528.388184,73.566971 
M558.294617,82.345093 
	C554.094604,76.862389 548.224976,75.980721 542.110901,77.258957 
	C535.834229,78.571175 531.864258,83.071243 530.837158,89.251724 
	C530.094299,93.722061 529.988159,98.578423 530.916077,102.985069 
	C532.595642,110.960533 538.187988,115.028656 545.802002,115.085625 
	C553.853455,115.145859 559.226196,111.163078 561.357239,103.090347 
	C563.204346,96.092987 562.830017,89.239853 558.294617,82.345093 
z"/>
<path fill="#DCE9FD" opacity="1.000000" stroke="none" 
	d="
M369.847656,108.743439 
	C366.076508,113.055710 363.108856,118.392906 358.611176,120.571960 
	C353.911469,122.848915 347.468475,123.373299 342.289490,122.281960 
	C337.380768,121.247581 333.122284,117.127464 329.005676,114.624489 
	C329.500732,123.372284 330.033325,132.783432 330.589966,142.619049 
	C327.065857,142.619049 324.365448,142.619049 321.371033,142.619049 
	C321.371033,118.485054 321.371033,94.468201 321.371033,70.217621 
	C324.260010,70.217621 326.858521,70.217621 330.271606,70.217621 
	C329.582581,73.229179 328.957397,75.961700 328.206818,79.242256 
	C329.234985,78.652206 330.072510,78.452026 330.427094,77.926193 
	C336.140320,69.454132 344.522614,67.518669 353.716370,69.372177 
	C363.275146,71.299278 368.826721,78.025642 371.134216,87.300308 
	C372.897400,94.387123 372.682037,101.480980 369.847656,108.743439 
M330.299408,97.262161 
	C331.441772,101.024788 331.861359,105.235069 333.862305,108.465919 
	C339.809723,118.068878 354.609100,117.653419 360.077057,107.842865 
	C364.322418,100.225868 364.334015,92.236786 360.195435,84.502838 
	C357.251801,79.001968 352.374664,76.768127 346.172150,76.847061 
	C340.065430,76.924782 335.403717,79.529640 332.992279,84.945747 
	C331.422302,88.472008 331.145844,92.574188 330.299408,97.262161 
z"/>
<path fill="#DDEAFD" opacity="1.000000" stroke="none" 
	d="
M387.418274,74.364746 
	C396.981018,67.568207 407.026093,66.579865 416.779358,72.110191 
	C426.622040,77.691193 429.331879,87.412895 429.070343,98.807556 
	C415.283325,98.807556 401.723175,98.807556 388.285583,98.807556 
	C386.970001,105.830269 393.919159,114.056320 399.921417,115.205597 
	C408.579407,116.863396 415.115112,114.249535 418.408417,106.604553 
	C420.732819,101.208817 424.740112,104.592415 428.089386,103.879807 
	C427.531891,113.608414 419.660614,121.630386 409.766937,122.984558 
	C396.642975,124.780846 386.307404,120.114464 381.399780,110.177124 
	C375.727783,98.691963 378.161530,83.620430 387.418274,74.364746 
M406.000763,76.414352 
	C395.577179,76.218109 388.656311,82.178612 388.314880,91.658569 
	C398.547913,91.658569 408.780975,91.658569 419.018890,91.658569 
	C418.730713,83.508713 414.652832,78.592987 406.000763,76.414352 
z"/>
<path fill="#DDEAFD" opacity="1.000000" stroke="none" 
	d="
M177.554108,115.403130 
	C170.500351,106.369736 169.563766,96.432899 172.573044,86.254387 
	C176.835815,71.836060 188.841187,66.903786 202.890137,69.415260 
	C215.187378,71.613602 223.469910,85.317337 221.216949,98.880707 
	C207.890060,98.880707 194.474594,98.880707 181.113922,98.880707 
	C180.400650,105.839981 184.758728,112.617836 190.971725,114.749397 
	C198.407196,117.300369 207.378418,115.138519 209.768097,108.972443 
	C212.110153,102.929237 215.844742,103.132401 221.213821,104.241653 
	C219.956406,112.375748 215.560120,117.900070 208.278885,121.213341 
	C198.321091,125.744545 186.047592,123.450523 177.554108,115.403130 
M181.440125,87.421440 
	C181.209641,88.807693 180.979172,90.193947 180.744888,91.603035 
	C191.487549,91.603035 201.687851,91.603035 211.923447,91.603035 
	C210.884430,82.894493 206.572784,77.853065 199.345993,76.560814 
	C191.959579,75.240021 185.853439,78.748283 181.440125,87.421440 
z"/>
<path fill="#DCE9FD" opacity="1.000000" stroke="none" 
	d="
M503.070801,121.065613 
	C502.478943,118.259689 502.095642,115.827263 501.532959,112.256569 
	C500.314392,113.813545 499.456970,114.746567 498.782745,115.797150 
	C494.628052,122.271141 486.327484,125.143143 478.005615,122.938507 
	C472.132477,121.382591 466.928436,114.745842 466.711670,108.535332 
	C466.435974,100.636070 470.417450,94.797501 478.655670,92.188393 
	C482.708710,90.904770 487.079254,90.496933 491.343567,90.049561 
	C494.438171,89.724915 497.594208,89.986168 500.638763,89.986168 
	C501.786743,81.659813 499.399261,78.128967 492.041687,76.663879 
	C483.662628,74.995392 478.872040,77.977921 476.401978,86.629890 
	C473.743103,86.629890 471.003510,86.629890 468.314514,86.629890 
	C466.426239,78.952148 472.315521,71.415649 478.452545,70.508438 
	C485.202148,69.510681 492.365570,69.212486 499.041626,70.374184 
	C506.561096,71.682648 510.186615,77.581276 510.277252,85.392288 
	C510.369965,93.379959 510.210754,101.370956 510.339752,109.357628 
	C510.403961,113.332634 510.866333,117.301224 511.201813,122.021896 
	C508.669708,121.835632 505.974518,121.637367 503.070801,121.065613 
M484.741608,115.980209 
	C497.128418,115.249985 502.973480,108.118912 500.330688,96.024216 
	C494.871582,96.765198 489.249237,97.134109 483.830658,98.385422 
	C479.288391,99.434364 476.281372,102.640030 476.175476,107.673767 
	C476.066345,112.860435 479.502686,114.900581 484.741608,115.980209 
z"/>
<path fill="#DAE8FC" opacity="1.000000" stroke="none" 
	d="
M683.341858,72.467087 
	C688.116943,86.086098 692.727661,99.340073 697.530212,113.145485 
	C701.605469,100.686272 705.357727,89.061928 709.215393,77.472702 
	C711.944092,69.275124 712.007812,69.296333 721.332703,70.614914 
	C720.760132,72.377068 720.279480,74.082367 719.657532,75.734474 
	C714.962830,88.205330 710.109863,100.618668 705.593079,113.153313 
	C703.863647,117.952538 702.585083,122.964554 701.625366,127.979942 
	C699.825745,137.384064 694.049561,142.672363 684.505188,142.992950 
	C681.692749,143.087418 678.874451,143.007507 675.675049,143.007507 
	C675.675049,140.654892 675.675049,138.605499 675.675049,136.290161 
	C678.034790,136.059662 680.331421,135.944580 682.591736,135.595108 
	C691.196045,134.264801 694.454468,128.763718 691.360657,120.480988 
	C685.823853,105.658058 680.136902,90.891243 674.523438,76.096939 
	C673.883118,74.409271 673.310547,72.695885 672.036926,69.107857 
	C676.612000,70.337479 679.894775,71.219772 683.341858,72.467087 
z"/>
<path fill="#DBE8FD" opacity="1.000000" stroke="none" 
	d="
M283.304199,68.991928 
	C306.948151,68.959885 319.258209,88.670197 309.233368,109.859901 
	C305.138245,118.515808 298.099854,122.609802 288.613678,123.051094 
	C277.942780,123.547516 269.049683,120.509117 264.205841,110.352615 
	C259.755707,101.021622 259.795807,91.276680 264.045044,81.856049 
	C267.628418,73.911652 274.280762,69.922104 283.304199,68.991928 
M294.856934,78.396080 
	C285.912598,74.164680 277.333923,76.106949 273.243011,83.830818 
	C268.898712,92.033089 268.889404,100.606483 273.617065,108.654503 
	C279.142883,118.061218 292.509125,118.490952 298.913116,109.720703 
	C305.361359,100.889885 303.883331,84.057335 294.856934,78.396080 
z"/>
<path fill="#DCE9FD" opacity="1.000000" stroke="none" 
	d="
M106.482147,236.764481 
	C94.516327,231.375305 89.508736,221.720963 90.790344,207.131973 
	C91.828613,195.312973 98.028084,187.016724 108.737854,184.722244 
	C126.289467,180.961975 139.358795,189.095657 141.364822,206.713943 
	C143.140091,222.305618 136.242432,234.599182 123.091545,237.278870 
	C117.924477,238.331741 112.288757,237.084702 106.482147,236.764481 
M102.858704,223.406586 
	C106.550598,229.176071 111.856438,231.821655 118.582375,230.731354 
	C125.828163,229.556763 130.399796,224.720398 131.357529,217.782745 
	C132.106003,212.360809 131.795883,206.448822 130.405289,201.162567 
	C128.668472,194.560226 122.451714,190.944107 115.922852,191.013840 
	C109.385193,191.083649 103.813049,194.952408 101.467735,201.409332 
	C98.850594,208.614639 99.075981,215.778137 102.858704,223.406586 
z"/>
<path fill="#E2E6FC" opacity="1.000000" stroke="none" 
	d="
M427.773621,247.427658 
	C430.908752,243.479675 430.779144,239.525360 429.200836,235.385071 
	C423.506470,220.447540 417.825256,205.505005 412.156982,190.557571 
	C411.581421,189.039749 411.127045,187.475967 410.607422,185.906189 
	C419.231415,183.801758 420.143372,184.178864 422.801575,192.047913 
	C426.634735,203.395020 430.270264,214.808823 434.017853,226.185013 
	C434.151306,226.590149 434.580322,226.897934 435.182037,227.627487 
	C435.847931,226.757065 436.614288,226.150375 436.856750,225.379028 
	C440.397552,214.113586 443.776031,202.796494 447.388611,191.554489 
	C449.750519,184.204590 450.332184,184.021683 459.081787,185.809479 
	C458.510193,187.552948 458.015625,189.269745 457.389618,190.937210 
	C453.234467,202.005692 448.817139,212.982834 444.960999,224.153961 
	C442.481964,231.335587 440.814819,238.797485 438.765930,246.550934 
	C433.812714,258.198608 424.188751,258.637115 413.575195,257.782440 
	C413.575195,255.701889 413.575195,253.667175 413.575195,252.213562 
	C418.395630,250.683395 423.014709,249.217133 427.773621,247.427658 
z"/>
<path fill="#D5E4FA" opacity="1.000000" stroke="none" 
	d="
M109.303520,68.969742 
	C124.058929,68.989990 130.734299,75.718788 130.741730,90.143318 
	C130.747116,100.598694 130.742783,111.054077 130.742783,121.767303 
	C127.430389,121.767303 124.694031,121.767303 121.409035,121.767303 
	C121.409035,115.709930 121.414444,109.910843 121.407326,104.111771 
	C121.401596,99.447266 121.480057,94.779869 121.343842,90.118942 
	C121.126129,82.669350 118.230316,78.419388 112.710938,77.130905 
	C106.447624,75.668755 98.180855,79.122955 95.501694,84.575523 
	C94.814888,85.973282 94.783585,87.785347 94.774452,89.408897 
	C94.714684,100.043182 94.743668,110.677963 94.743668,121.670685 
	C91.579224,121.670685 88.842873,121.670685 85.755051,121.670685 
	C85.755051,104.603416 85.755051,87.533470 85.755051,70.213654 
	C88.547920,70.213654 91.139473,70.213654 94.555122,70.213654 
	C93.779022,73.496529 93.076118,76.469772 92.517929,78.830887 
	C97.645027,75.738640 103.253990,72.355774 109.303520,68.969742 
z"/>
<path fill="#D7E5FB" opacity="1.000000" stroke="none" 
	d="
M67.264252,207.004166 
	C67.264259,201.876404 67.264259,197.247864 67.264259,192.331650 
	C64.209793,192.132462 61.623837,191.963837 58.747181,191.776245 
	C58.747181,189.526749 58.747181,187.463318 58.747181,185.051270 
	C61.509319,185.051270 63.960564,185.051270 66.744781,185.051270 
	C67.913292,178.222107 67.475021,170.559464 74.464539,166.962173 
	C78.507027,164.881622 83.363724,164.383087 88.460014,163.009201 
	C88.460014,166.598709 88.460014,168.673126 88.460014,170.676193 
	C77.325050,173.673935 76.024773,175.282990 77.176025,184.968796 
	C78.909172,184.968796 80.706635,184.968781 82.504105,184.968781 
	C84.330002,184.968781 86.155899,184.968796 88.417908,184.968796 
	C88.417908,187.227371 88.417908,189.259979 88.417908,191.904083 
	C84.768768,191.904083 81.027687,191.904083 76.705750,191.904083 
	C76.705750,207.199646 76.705750,221.929443 76.705750,236.994049 
	C73.381989,236.994049 70.650391,236.994049 67.264244,236.994049 
	C67.264244,227.042130 67.264244,217.272751 67.264252,207.004166 
z"/>
<path fill="#DDEAFD" opacity="1.000000" stroke="none" 
	d="
M162.579315,69.992455 
	C167.725235,71.039352 164.700882,74.275024 165.377945,76.983963 
	C161.135971,76.983963 157.367462,76.983963 153.567474,76.983963 
	C153.567474,87.763504 153.384521,98.160973 153.662262,108.546127 
	C153.765762,112.415413 156.798721,114.168343 160.466324,114.630768 
	C162.414551,114.876404 164.369965,115.065193 166.565216,115.306343 
	C166.565216,117.405594 166.565216,119.337502 166.565216,121.766502 
	C162.450089,121.766502 158.302643,122.218643 154.296524,121.659019 
	C148.495575,120.848671 144.986160,117.224442 144.464172,110.722969 
	C143.774185,102.129089 144.004700,93.460686 143.861115,84.823952 
	C143.820450,82.378036 143.854904,79.930862 143.854904,77.255722 
	C140.810303,77.095055 138.363678,76.965950 135.545609,76.817238 
	C135.545609,74.674965 135.545609,72.634102 135.545609,70.261566 
	C138.175659,70.075294 140.745712,69.893265 143.758423,69.679886 
	C143.758423,65.020058 143.758423,60.579277 143.758423,55.432247 
	C146.953949,55.591045 149.657776,55.725410 152.846527,55.883873 
	C152.846527,60.572987 152.846527,64.981659 152.846527,69.988312 
	C156.254349,69.988312 159.194382,69.988312 162.579315,69.992455 
z"/>
<path fill="#DDEAFD" opacity="1.000000" stroke="none" 
	d="
M656.472656,69.502083 
	C660.466125,69.822144 664.113770,69.822144 668.148193,69.822144 
	C668.148193,72.298676 668.148193,74.350952 668.148193,76.799965 
	C664.311218,76.799965 660.551147,76.799965 656.740784,76.799965 
	C656.740784,87.879852 656.519226,98.576385 656.862671,109.254738 
	C656.980591,112.923248 660.327026,114.232513 663.693420,114.663155 
	C665.500244,114.894287 667.319031,115.031883 669.479858,115.246147 
	C669.479858,117.318352 669.479858,119.369087 669.479858,121.897560 
	C665.596680,121.897560 661.783569,122.235115 658.053467,121.822243 
	C651.696594,121.118614 647.917786,117.181992 647.334290,110.013771 
	C646.742126,102.739555 646.961975,95.398003 646.862976,88.085442 
	C646.816101,84.622192 646.854919,81.157791 646.854919,77.348740 
	C643.879028,77.137383 641.308228,76.954788 638.467102,76.753006 
	C638.467102,74.630615 638.467102,72.708717 638.467102,70.231781 
	C640.979492,70.086830 643.553955,69.938301 646.753479,69.753716 
	C646.753479,65.112740 646.753479,60.551270 646.753479,55.417099 
	C650.128052,55.595982 652.846680,55.740093 656.126831,55.913971 
	C656.126831,60.583885 656.126831,64.882957 656.472656,69.502083 
z"/>
<path fill="#D9E7FC" opacity="1.000000" stroke="none" 
	d="
M63.840599,81.999939 
	C63.840591,70.881599 63.840591,60.263264 63.840591,49.327484 
	C67.242043,49.327484 70.146385,49.327484 73.802444,49.327484 
	C73.802444,73.368172 73.802444,97.307381 73.802444,121.635521 
	C70.447174,121.635521 67.558304,121.635521 63.840603,121.635521 
	C63.840603,108.647217 63.840603,95.573578 63.840599,81.999939 
z"/>
<path fill="#DCE9FD" opacity="1.000000" stroke="none" 
	d="
M601.165894,52.342434 
	C602.392517,45.884212 606.859070,50.530815 609.921509,48.649567 
	C609.921509,73.343933 609.921509,97.368118 609.921509,121.704948 
	C607.183350,121.704948 604.465698,121.704948 601.161865,121.704948 
	C601.161865,98.625786 601.161865,75.717339 601.165894,52.342434 
z"/>
<path fill="#D6E5FB" opacity="1.000000" stroke="none" 
	d="
M447.862549,106.001938 
	C447.862518,111.476112 447.862518,116.452278 447.862518,121.883118 
	C444.749298,121.883118 441.897644,121.883118 438.645813,121.883118 
	C438.645813,104.749107 438.645813,87.718765 438.645813,70.327110 
	C441.391602,70.327110 444.092194,70.327110 447.541931,70.327110 
	C446.694458,73.861511 445.910400,77.131569 445.126312,80.401627 
	C450.960693,74.460670 456.524750,67.923409 466.552521,69.263069 
	C466.552521,71.803612 466.552521,74.222549 466.552521,76.738007 
	C465.884613,76.926941 465.268616,77.182198 464.629608,77.269997 
	C451.803497,79.032372 447.753723,83.639366 447.758942,96.532974 
	C447.760162,99.523308 447.826294,102.513618 447.862549,106.001938 
z"/>
<path fill="#D6E5FB" opacity="1.000000" stroke="none" 
	d="
M167.577545,186.392883 
	C171.290665,185.274429 174.674362,184.346252 178.601654,183.268951 
	C178.601654,186.922073 178.601654,189.333817 178.601654,191.633835 
	C178.212097,191.816544 178.068069,191.924393 177.909836,191.952576 
	C162.445847,194.707642 159.583206,198.293579 159.831055,214.237961 
	C159.947113,221.703690 159.850906,229.172699 159.850906,236.987793 
	C156.732010,236.987793 153.971817,236.987793 150.735168,236.987793 
	C150.735168,219.763779 150.735168,202.587738 150.735168,185.188232 
	C153.484985,185.188232 156.088577,185.188232 159.532410,185.188232 
	C158.686188,188.863602 157.906281,192.250885 157.037582,196.023804 
	C160.670044,192.665253 163.959106,189.624207 167.577545,186.392883 
z"/>
<path fill="#DDEAFD" opacity="1.000000" stroke="none" 
	d="
M231.081879,108.981613 
	C231.081879,95.886757 231.081879,83.288841 231.081879,70.339470 
	C233.974518,70.339470 236.683441,70.339470 240.147308,70.339470 
	C239.195526,73.954155 238.335526,77.220245 237.475540,80.486343 
	C243.320328,74.646408 248.905350,68.108521 258.921692,69.151543 
	C258.921692,71.661079 258.921692,74.062675 258.921692,76.757591 
	C258.135681,76.923004 257.215454,77.198212 256.276276,77.301895 
	C245.162582,78.528908 240.768158,83.021828 240.317505,94.357155 
	C240.027359,101.655045 240.286880,108.974762 240.298660,116.284691 
	C240.301544,118.076508 240.299088,119.868332 240.299088,121.984055 
	C237.060989,121.984055 234.333160,121.984055 231.081879,121.984055 
	C231.081879,117.691467 231.081879,113.585014 231.081879,108.981613 
z"/>
<path fill="#DDEAFD" opacity="1.000000" stroke="none" 
	d="
M590.143250,83.008881 
	C590.143250,96.128029 590.143250,108.748245 590.143250,121.687729 
	C587.088318,121.687729 584.498840,121.687729 581.490479,121.687729 
	C581.490479,104.596336 581.490479,87.418083 581.490479,69.964294 
	C584.277893,69.964294 586.861145,69.964294 590.143250,69.964294 
	C590.143250,74.300026 590.143250,78.404991 590.143250,83.008881 
z"/>
<path fill="#DDEAFD" opacity="1.000000" stroke="none" 
	d="
M631.143250,86.002579 
	C631.143250,98.123352 631.143250,109.744865 631.143250,121.686447 
	C628.091248,121.686447 625.502136,121.686447 622.492188,121.686447 
	C622.492188,104.598015 622.492188,87.420532 622.492188,69.965866 
	C625.275757,69.965866 627.859070,69.965866 631.143250,69.965866 
	C631.143250,75.296089 631.143250,80.399704 631.143250,86.002579 
z"/>
<path fill="#4679CA" opacity="1.000000" stroke="none" 
	d="
M668.530029,257.828094 
	C669.010742,257.707062 669.553406,257.757874 669.570374,257.881012 
	C670.431824,264.141174 673.655518,267.829376 681.079956,267.990448 
	C672.995361,267.567688 669.954224,271.866455 668.926697,279.141693 
	C668.894836,271.575623 665.504761,268.081635 657.910828,268.090149 
	C664.394287,267.136139 668.567749,264.713196 668.530029,257.828094 
z"/>
<path fill="#467ACA" opacity="1.000000" stroke="none" 
	d="
M475.057129,33.854057 
	C478.515564,35.840816 481.894440,37.434475 485.133911,38.962372 
	C478.212463,39.137348 472.553711,41.647270 473.557434,51.390804 
	C473.437164,42.579662 469.517761,38.317039 460.467316,38.520893 
	C469.948578,39.037369 473.305542,34.204063 473.680969,26.182138 
	C474.113190,28.608408 474.545410,31.034678 475.057129,33.854057 
z"/>
<path fill="#DEEAFD" opacity="1.000000" stroke="none" 
	d="
M631.140747,54.975288 
	C631.065613,56.742603 630.990723,58.042736 630.896973,59.670952 
	C628.003296,59.670952 625.284058,59.670952 622.208252,59.670952 
	C622.208252,56.360569 622.208252,53.115547 622.208252,49.440792 
	C624.838257,49.440792 627.552979,49.440792 630.880554,49.440792 
	C630.961548,51.016129 631.051270,52.762119 631.140747,54.975288 
z"/>
<path fill="#DEEAFD" opacity="1.000000" stroke="none" 
	d="
M589.969238,50.330757 
	C590.069641,53.593475 590.069641,56.402485 590.069641,59.610840 
	C587.137573,59.610840 584.420593,59.610840 581.272339,59.610840 
	C581.272339,56.364414 581.272339,53.010197 581.272339,48.799755 
	C584.248657,49.172745 587.058777,49.524895 589.969238,50.330757 
z"/>
<path fill="#4478C9" opacity="1.000000" stroke="none" 
	d="
M748.628540,160.554474 
	C747.486572,159.607803 746.661499,158.580261 745.836487,157.552704 
	C746.962036,157.248184 748.087646,156.943649 749.213196,156.639099 
	C749.123901,157.917267 749.034668,159.195419 748.628540,160.554474 
z"/>
<path fill="#4478C9" opacity="1.000000" stroke="none" 
	d="
M220.672958,58.745899 
	C222.082993,58.757015 223.331177,59.052837 224.579346,59.348652 
	C223.994339,60.342194 223.409317,61.335735 222.824310,62.329285 
	C222.053238,61.229725 221.282166,60.130165 220.672958,58.745899 
z"/>
<path fill="#4478C9" opacity="1.000000" stroke="none" 
	d="
M18.575802,227.145599 
	C18.532032,225.557434 18.774441,224.122971 19.016848,222.688492 
	C19.814337,223.094864 20.611828,223.501221 21.409319,223.907578 
	C20.560207,225.038147 19.711096,226.168716 18.575802,227.145599 
z"/>
<path fill="#605BC1" opacity="1.000000" stroke="none" 
	d="
M451.971924,247.525391 
	C453.361481,247.143509 454.806213,247.106110 456.679321,247.145767 
	C456.353333,248.555832 455.598969,249.888840 454.844604,251.221832 
	C453.905426,250.104523 452.966248,248.987213 451.971924,247.525391 
z"/>
<path fill="#E3EBFE" opacity="1.000000" stroke="none" 
	d="
M255.926987,172.004578 
	C244.818100,172.004578 234.199539,172.004578 223.247345,172.004578 
	C223.247345,179.718002 223.247345,186.959595 223.247345,194.800232 
	C235.795242,194.800232 248.355057,194.800232 261.294373,194.800232 
	C261.294373,197.631912 261.294373,199.875320 261.294373,202.741577 
	C248.796112,202.741577 236.253265,202.741577 223.313202,202.741577 
	C223.313202,211.558578 223.313202,219.766037 223.313202,228.627655 
	C236.957428,228.627655 250.526138,228.627655 264.450378,228.627655 
	C264.450378,231.663727 264.450378,234.055557 264.450378,236.872650 
	C247.466660,236.872650 230.612701,236.872650 213.424652,236.872650 
	C213.424652,212.745468 213.424652,188.837006 213.424652,164.461975 
	C230.224716,164.461975 247.091461,164.461975 264.390930,164.461975 
	C264.390930,166.669266 264.390930,169.024002 264.390930,172.004578 
	C261.644196,172.004578 259.030762,172.004578 255.926987,172.004578 
z"/>
<path fill="#E3E8FD" opacity="1.000000" stroke="none" 
	d="
M337.086060,213.988007 
	C334.130829,213.988007 331.661133,213.988007 329.219086,213.988007 
	C329.045105,222.160980 333.836090,228.469940 341.083344,230.140793 
	C349.464752,232.073120 355.967621,229.144318 359.339508,221.918427 
	C361.099976,218.145767 361.654388,217.988647 368.910706,219.205841 
	C369.042267,230.093155 358.471924,238.496292 344.894440,238.298019 
	C328.583344,238.059860 318.524689,226.527023 319.484619,209.164154 
	C320.429291,192.077225 331.815094,182.467636 349.262909,184.031418 
	C361.876953,185.161972 371.330750,198.552444 369.679413,213.988007 
	C359.057709,213.988007 348.314667,213.988007 337.086060,213.988007 
M329.100616,204.962234 
	C329.599548,205.618652 330.091888,206.841766 330.598389,206.847610 
	C340.354126,206.960876 350.111511,206.931458 360.442535,206.931458 
	C360.006378,204.793900 359.867035,203.155762 359.332947,201.658417 
	C356.995819,195.106354 351.580261,191.242126 345.025269,191.297104 
	C337.575592,191.359589 332.157349,195.783890 329.100616,204.962234 
z"/>
<path fill="#E3E8FD" opacity="1.000000" stroke="none" 
	d="
M596.313354,238.120773 
	C584.854919,236.656631 577.571228,230.220078 574.944519,219.583725 
	C571.596497,206.026764 576.070679,192.605667 586.333374,187.145737 
	C595.475098,182.282211 604.935303,182.151215 613.786804,187.974030 
	C621.472656,193.029999 625.797791,204.321167 623.997131,213.858292 
	C610.702026,213.858292 597.298706,213.858292 583.956665,213.858292 
	C583.191467,220.993988 587.798096,227.899231 594.257629,229.884872 
	C602.001099,232.265198 610.405029,229.953262 612.859558,223.560440 
	C615.192200,217.484818 619.060486,218.487259 623.483032,219.138199 
	C623.238770,231.140762 612.355347,238.800430 596.313354,238.120773 
M613.043030,199.718567 
	C608.354004,192.211227 601.655579,189.591385 594.023132,192.279587 
	C587.908447,194.433243 583.619873,200.724701 584.287048,206.994263 
	C592.704834,206.994263 601.167175,206.994263 609.629456,206.994263 
	C611.273926,206.994263 612.918396,206.994263 615.185974,206.994263 
	C614.485413,204.457581 613.926331,202.433380 613.043030,199.718567 
z"/>
<path fill="#E2E6FC" opacity="1.000000" stroke="none" 
	d="
M510.041138,202.122772 
	C510.025635,208.622437 510.892975,214.939804 509.578827,220.765030 
	C506.848633,232.867233 497.661560,238.346893 482.962921,238.012848 
	C472.170563,237.767563 463.447571,230.618576 461.184265,219.579025 
	C460.328308,215.403992 460.025818,210.964645 460.378143,206.721085 
	C461.431091,194.037796 469.759186,185.149521 481.042999,184.039856 
	C496.329224,182.536545 505.657074,188.243652 510.041138,202.122772 
M488.761322,191.381866 
	C480.900391,190.470673 475.089050,192.985092 471.988403,199.269867 
	C468.063446,207.225494 468.099945,215.401932 472.339417,223.237411 
	C475.907349,229.831757 483.185547,232.428543 490.326630,230.135147 
	C497.458832,227.844635 501.702698,221.016220 501.871033,211.560196 
	C502.057678,201.076691 498.025574,194.570618 488.761322,191.381866 
z"/>
<path fill="#E3E8FD" opacity="1.000000" stroke="none" 
	d="
M547.760132,183.995316 
	C559.373901,185.697281 565.050842,192.052658 565.122986,203.156357 
	C565.195129,214.258560 565.138855,225.361588 565.138855,236.731262 
	C561.891907,236.731262 559.317627,236.731262 556.082397,236.731262 
	C556.082397,231.417923 556.105347,226.309860 556.076416,221.202087 
	C556.043396,215.376175 556.231079,209.532593 555.841431,203.729019 
	C555.277588,195.331970 550.704163,191.509232 542.380920,191.907166 
	C534.973022,192.261368 529.157166,198.077698 529.146118,205.186844 
	C529.130066,215.496857 529.142029,225.806885 529.142029,236.562347 
	C526.110657,236.562347 523.424561,236.562347 520.401123,236.562347 
	C520.401123,219.589706 520.401123,202.686966 520.401123,185.385605 
	C523.021179,185.385605 525.571289,185.385605 528.901733,185.385605 
	C528.245300,188.482071 527.622009,191.422104 526.998779,194.362122 
	C533.074585,189.423630 538.000793,182.419937 547.760132,183.995316 
z"/>
<path fill="#E2E6FC" opacity="1.000000" stroke="none" 
	d="
M301.954498,203.813507 
	C303.475769,199.701141 304.862640,195.954330 306.261505,192.212006 
	C309.257599,184.196625 309.260132,184.197571 318.649139,185.502029 
	C317.728485,187.890594 316.867920,190.173203 315.971191,192.441528 
	C310.647064,205.909363 305.152008,219.313187 300.088196,232.878082 
	C298.650787,236.728561 296.351410,237.113098 292.903625,237.118607 
	C289.530762,237.123993 287.523376,236.418015 286.184448,232.897736 
	C280.740967,218.585876 274.941528,204.409515 269.294037,190.174988 
	C268.699707,188.677002 268.241882,187.124847 267.691132,185.511047 
	C276.960297,184.159454 277.075226,184.118988 279.943115,192.264511 
	C283.974060,203.713455 287.809143,215.231323 291.753906,226.710800 
	C291.898773,227.132324 292.316986,227.459915 293.118347,228.483307 
	C296.134033,220.066406 298.979797,212.123764 301.954498,203.813507 
z"/>
<path fill="#E2E1FA" opacity="1.000000" stroke="none" 
	d="
M391.173737,199.527496 
	C390.264496,204.259705 389.094849,208.627060 388.899994,213.037476 
	C388.555206,220.840408 388.803375,228.669540 388.803375,236.912827 
	C385.784973,236.912827 383.052124,236.912827 379.787598,236.912827 
	C379.787598,219.896301 379.787598,202.851074 379.787598,185.385895 
	C382.387390,185.385895 385.075836,185.385895 388.537781,185.385895 
	C387.705658,188.914429 386.935242,192.181427 386.164795,195.448425 
	C391.780273,188.937943 397.732910,183.371414 407.523743,184.124420 
	C407.523743,186.845078 407.523743,189.255661 407.523743,192.065231 
	C401.281250,192.582153 394.969879,193.008591 391.173737,199.527496 
z"/>
<path fill="#2965C2" opacity="1.000000" stroke="none" 
	d="
M558.535706,82.637039 
	C562.830017,89.239853 563.204346,96.092987 561.357239,103.090347 
	C559.226196,111.163078 553.853455,115.145859 545.802002,115.085625 
	C538.187988,115.028656 532.595642,110.960533 530.916077,102.985069 
	C529.988159,98.578423 530.094299,93.722061 530.837158,89.251724 
	C531.864258,83.071243 535.834229,78.571175 542.110901,77.258957 
	C548.224976,75.980721 554.094604,76.862389 558.535706,82.637039 
z"/>
<path fill="#2A66C2" opacity="1.000000" stroke="none" 
	d="
M330.294647,96.840256 
	C331.145844,92.574188 331.422302,88.472008 332.992279,84.945747 
	C335.403717,79.529640 340.065430,76.924782 346.172150,76.847061 
	C352.374664,76.768127 357.251801,79.001968 360.195435,84.502838 
	C364.334015,92.236786 364.322418,100.225868 360.077057,107.842865 
	C354.609100,117.653419 339.809723,118.068878 333.862305,108.465919 
	C331.861359,105.235069 331.441772,101.024788 330.294647,96.840256 
z"/>
<path fill="#2A66C2" opacity="1.000000" stroke="none" 
	d="
M406.390198,76.499870 
	C414.652832,78.592987 418.730713,83.508713 419.018890,91.658569 
	C408.780975,91.658569 398.547913,91.658569 388.313171,91.653824 
	C388.656311,82.178612 395.577179,76.218109 406.390198,76.499870 
z"/>
<path fill="#2A67C2" opacity="1.000000" stroke="none" 
	d="
M181.593628,87.046799 
	C185.853439,78.748283 191.959579,75.240021 199.345993,76.560814 
	C206.572784,77.853065 210.884430,82.894493 211.923447,91.603035 
	C201.687851,91.603035 191.487549,91.603035 180.744888,91.603035 
	C180.979172,90.193947 181.209641,88.807693 181.593628,87.046799 
z"/>
<path fill="#2A66C2" opacity="1.000000" stroke="none" 
	d="
M484.332886,115.954712 
	C479.502686,114.900581 476.066345,112.860435 476.175476,107.673767 
	C476.281372,102.640030 479.288391,99.434364 483.830658,98.385422 
	C489.249237,97.134109 494.871582,96.765198 500.330688,96.024216 
	C502.973480,108.118912 497.128418,115.249985 484.332886,115.954712 
z"/>
<path fill="#2A66C2" opacity="1.000000" stroke="none" 
	d="
M295.168396,78.612061 
	C303.883331,84.057335 305.361359,100.889885 298.913116,109.720703 
	C292.509125,118.490952 279.142883,118.061218 273.617065,108.654503 
	C268.889404,100.606483 268.898712,92.033089 273.243011,83.830818 
	C277.333923,76.106949 285.912598,74.164680 295.168396,78.612061 
z"/>
<path fill="#2A66C2" opacity="1.000000" stroke="none" 
	d="
M102.675598,223.073669 
	C99.075981,215.778137 98.850594,208.614639 101.467735,201.409332 
	C103.813049,194.952408 109.385193,191.083649 115.922852,191.013840 
	C122.451714,190.944107 128.668472,194.560226 130.405289,201.162567 
	C131.795883,206.448822 132.106003,212.360809 131.357529,217.782745 
	C130.399796,224.720398 125.828163,229.556763 118.582375,230.731354 
	C111.856438,231.821655 106.550598,229.176071 102.675598,223.073669 
z"/>
<path fill="#D634BA" opacity="1.000000" stroke="none" 
	d="
M329.188904,204.559265 
	C332.157349,195.783890 337.575592,191.359589 345.025269,191.297104 
	C351.580261,191.242126 356.995819,195.106354 359.332947,201.658417 
	C359.867035,203.155762 360.006378,204.793900 360.442535,206.931458 
	C350.111511,206.931458 340.354126,206.960876 330.598389,206.847610 
	C330.091888,206.841766 329.599548,205.618652 329.188904,204.559265 
z"/>
<path fill="#D635BA" opacity="1.000000" stroke="none" 
	d="
M613.205139,200.063873 
	C613.926331,202.433380 614.485413,204.457581 615.185974,206.994263 
	C612.918396,206.994263 611.273926,206.994263 609.629456,206.994263 
	C601.167175,206.994263 592.704834,206.994263 584.287048,206.994263 
	C583.619873,200.724701 587.908447,194.433243 594.023132,192.279587 
	C601.655579,189.591385 608.354004,192.211227 613.205139,200.063873 
z"/>
<path fill="#D633BA" opacity="1.000000" stroke="none" 
	d="
M489.144043,191.511917 
	C498.025574,194.570618 502.057678,201.076691 501.871033,211.560196 
	C501.702698,221.016220 497.458832,227.844635 490.326630,230.135147 
	C483.185547,232.428543 475.907349,229.831757 472.339417,223.237411 
	C468.099945,215.401932 468.063446,207.225494 471.988403,199.269867 
	C475.089050,192.985092 480.900391,190.470673 489.144043,191.511917 
z"/>
</svg>